<svg viewBox="0 0 72 72" xmlns="http://www.w3.org/2000/svg"><path d="m16.6875 38.8125c-5.9636-2.8537-9.8014-10.1256-7.9817-14.1187 1.8669-4.0966 6.9504-9.1 13.8218-6.7149s7.1253 9.0835 7.1253 9.0835l-.6534 2.8865 7.7946-6.3607-8.6767-1.8829 1.6659-7.9764-7.2087 3.8044-3.3356-7.4372-3.595 7.3181-7.0724-4.0568 1.3934 8.0309-8.1037.8768 5.8413 5.6814-6.0359 5.473 8.0643 1.162-.7296 8.5369z" fill="#fcea2b"/><path d="m29.6529 27.0624c-.5423-5.4473-5.1387-9.7012-10.7287-9.7012-5.9549 0-10.7822 4.8274-10.7822 10.7822 0 4.2822 2.4963 7.9814 6.1131 9.7216l2.4324.9475 3.8509-.4005 2.0033-5.0787 5.171-3.2083 1.6317-.4575z" fill="#f59e0b"/><path d="m20.9631 37.7488c-.0366.4183-.3756.7568-.7953.8018-5.0879.545-9.0012 5.5548-9.0012 11.6528 0 6.462 4.4814 11.7005 10.0096 11.7005h38.1602c6.0734 0 10.997-5.536 10.997-12.3649 0-6.5444-4.5218-11.9014-10.2441-12.3364-.4378-.0333-.7928-.3397-.8763-.7685-1.2783-6.5642-7.1753-11.4971-14.1471-11.4971-4.531 0-8.5673 2.0513-11.1884 5.3146-.2561.3189-.686.465-1.0641.3064-1.0086-.423-2.0738-.6277-3.2657-.6277-4.5039 0-8.2008 3.4372-8.5846 7.8185z" fill="#fff"/><g fill="none" stroke="#fff" stroke-linecap="round" stroke-linejoin="round" stroke-miterlimit="10"><path d="m11.2649 40.762-3.1998 1.796 1.6659-7.9764-8.0643-1.162 6.0358-5.473-5.8412-5.6814 8.1036-.8768-1.3933-8.031 7.0724 4.0568 3.595-7.318 3.3356 7.4372 7.2087-3.8045-1.6659 7.9764 8.0644 1.162-2.9241 2.3825" stroke-width="1.9"/><path d="m14.2551 37.865c-3.6168-1.7402-6.1131-5.4394-6.1131-9.7216 0-5.9549 4.8274-10.7822 10.7822-10.7822 5.59 0 10.1864 4.2539 10.7287 9.7012" stroke-width="1.9"/><path d="m20.9631 37.7488c-.0366.4183-.3756.7568-.7953.8018-5.0879.545-9.0012 5.5548-9.0012 11.6528 0 6.462 4.4814 11.7005 10.0096 11.7005h38.1602c6.0734 0 10.997-5.536 10.997-12.3649 0-6.5444-4.5218-11.9014-10.2441-12.3364-.4378-.0333-.7928-.3397-.8763-.7685-1.2783-6.5642-7.1753-11.4971-14.1471-11.4971-4.531 0-8.5673 2.0513-11.1884 5.3146-.2561.3189-.686.465-1.0641.3064-1.0086-.423-2.0738-.6277-3.2657-.6277-4.5039 0-8.2008 3.4372-8.5846 7.8185z" stroke-width="2"/></g></svg>